# xmcd CD database file
#
# Track frame offsets:
#	150
#	11860
#	21617
#	34534
#	44689
#	54705
#	64244
#	73175
#	84638
#	96000
#	106374
#	118334
#	130379
#	140870
#	153856
#	165798
#	179893
#	192770
#	204417
#	215205
#	227920
#	239258
#	251324
#	262373
#	274987
#	285320
#
# Disc length: 3967 seconds
#
# Revision: 0
# Processed by: cddbd v1.5.2PL0 Copyright (c) Steve Scherf et al.
# Submitted via: CDex 1.51
#
DISCID=9a0f7d1a
DTITLE=Jan Howard - Belle Of The Ball
DYEAR=1900
DGENRE=Country
TTITLE0=Jan Howard/The Real Me
TTITLE1=Jan Howard/Whatcha Gonna Do For An Encore
TTITLE2=Jan Howard/A World I Can't Live In
TTITLE3=Jan Howard/I've Got My Phone
TTITLE4=Jan Howard/All Alone Again
TTITLE5=Jan Howard/Let Me Know
TTITLE6=Jan Howard/Bring It On Back To Me
TTITLE7=Jan Howard/My Baby's In Berlin
TTITLE8=Jan Howard/Pick Me Up On Your Way Down
TTITLE9=Jan Howard/I Wish I Could Fall In Love Again
TTITLE10=Jan Howard/If Your Conscience Can't Stop You How Can I
TTITLE11=Jan Howard/Many Dreams Ago
TTITLE12=Jan Howard/The One You Slip Around With
TTITLE13=Jan Howard/Don't Worry
TTITLE14=Jan Howard/Funny How Time Slips Away
TTITLE15=Jan Howard/Looking Back
TTITLE16=Jan Howard/Padre
TTITLE17=Jan Howard/Belle Of The Ball
TTITLE18=Jan Howard/Everybody Loves A Lover
TTITLE19=Jan Howard/This Sad Old House
TTITLE20=Jan Howard/He Called Me Baby
TTITLE21=Jan Howard/They Listened While You Said Goodbye
TTITLE22=Jan Howard/You'd Better Go
TTITLE23=Jan Howard/My Destiny
TTITLE24=Jan Howard/Heartaches By The Number
TTITLE25=Jan Howard/Tomorrow You Won't Even Know My Name
EXTD=
EXTT0=
EXTT1=
EXTT2=
EXTT3=
EXTT4=
EXTT5=
EXTT6=
EXTT7=
EXTT8=
EXTT9=
EXTT10=
EXTT11=
EXTT12=
EXTT13=
EXTT14=
EXTT15=
EXTT16=
EXTT17=
EXTT18=
EXTT19=
EXTT20=
EXTT21=
EXTT22=
EXTT23=
EXTT24=
EXTT25=
PLAYORDER=
